<svg width="377" height="53" viewBox="0 0 377 53" fill="none" xmlns="http://www.w3.org/2000/svg">
<path d="M376.616 47.0769H24.9232L26.4134 49.8461H376.616V47.0769Z" fill="#FC6555"/>
<path d="M74.8022 6.97039V12.14H60.3933V39H53.8158V6.97039H74.8022ZM58.1275 18.6515H65.6069C68.1294 18.6515 70.2999 19.0695 72.1184 19.9054C73.937 20.7414 75.3375 21.9146 76.3201 23.4252C77.3027 24.9357 77.794 26.6956 77.794 28.7048C77.794 30.23 77.5154 31.6232 76.9581 32.8845C76.4008 34.131 75.5868 35.2163 74.5162 36.1402C73.4603 37.0495 72.1844 37.7534 70.6885 38.2521C69.1926 38.7507 67.4988 39 65.6069 39H53.8158V6.97039H60.4373V33.8524H65.6069C66.8681 33.8524 67.9094 33.6177 68.7307 33.1484C69.5519 32.6791 70.1679 32.0559 70.5785 31.2786C71.0038 30.4866 71.2165 29.614 71.2165 28.6608C71.2165 27.7515 71.0038 26.9302 70.5785 26.197C70.1679 25.449 69.5519 24.8624 68.7307 24.4371C67.9094 24.0118 66.8681 23.7991 65.6069 23.7991H58.1275V18.6515ZM97.7245 15.1978V20.1694H86.0214V15.1978H97.7245ZM102.366 15.1978V39H96.0306V15.1978H102.366ZM84.4375 15.1978H90.663L90.0251 27.2089C89.9371 28.9248 89.7538 30.4353 89.4751 31.7405C89.1965 33.0458 88.8225 34.1604 88.3532 35.0843C87.8986 36.0082 87.3486 36.7635 86.7033 37.3501C86.0727 37.9221 85.3321 38.34 84.4815 38.604C83.6456 38.868 82.7216 39 81.7097 39H79.7738L79.7079 34.0064L80.5218 33.9184C80.9911 33.8744 81.4017 33.7424 81.7537 33.5224C82.1203 33.2878 82.4283 32.9578 82.6776 32.5325C82.9416 32.0925 83.1616 31.5426 83.3376 30.8826C83.5136 30.208 83.6529 29.416 83.7556 28.5068C83.8729 27.5975 83.9535 26.5489 83.9975 25.361L84.4375 15.1978ZM113.585 30.1567L121.571 15.1978H127.906V39H121.571V24.0191L113.585 39H107.25V15.1978H113.585V30.1567ZM141.193 30.0247L131.294 15.1978H139.147L144.207 24.1731H148.761L147.991 30.0247H141.193ZM144.295 28.9468L138.861 39H131.228L139.125 25.889L144.295 28.9468ZM152.874 15.1978V39H146.539V15.1978H152.874ZM168.185 15.1978L158.286 30.0247H151.488L150.719 24.1731H155.272L160.31 15.1978H168.185ZM160.596 39L155.162 28.9468L160.53 25.889L168.383 39H160.596ZM187.764 24.8111V29.7387H175.665V24.8111H187.764ZM177.777 15.1978V39H171.441V15.1978H177.777ZM192.053 15.1978V39H185.696V15.1978H192.053ZM202.107 27.1209H208.53L201.909 39H195.507L202.107 27.1209ZM206.374 15.1978H216.824V39H210.488V20.1034H206.374C205.509 20.1034 204.791 20.2647 204.219 20.5874C203.647 20.8954 203.221 21.2987 202.943 21.7973C202.679 22.2813 202.547 22.7799 202.547 23.2932C202.547 23.7918 202.679 24.2758 202.943 24.7451C203.207 25.2144 203.617 25.603 204.175 25.911C204.732 26.219 205.428 26.3729 206.264 26.3729H212.842V30.6846H206.264C204.695 30.6846 203.287 30.494 202.041 30.1127C200.809 29.7314 199.753 29.2034 198.873 28.5288C198.008 27.8395 197.34 27.0402 196.871 26.131C196.416 25.207 196.189 24.1951 196.189 23.0952C196.189 21.9513 196.424 20.9027 196.893 19.9494C197.362 18.9962 198.037 18.1602 198.917 17.4416C199.797 16.723 200.86 16.173 202.107 15.7917C203.368 15.3958 204.791 15.1978 206.374 15.1978ZM227.317 27.1209H233.74L227.119 39H220.717L227.317 27.1209ZM231.584 15.1978H242.034V39H235.698V20.1034H231.584C230.719 20.1034 230.001 20.2647 229.429 20.5874C228.857 20.8954 228.431 21.2987 228.153 21.7973C227.889 22.2813 227.757 22.7799 227.757 23.2932C227.757 23.7918 227.889 24.2758 228.153 24.7451C228.417 25.2144 228.827 25.603 229.385 25.911C229.942 26.219 230.639 26.3729 231.475 26.3729H238.052V30.6846H231.475C229.905 30.6846 228.497 30.494 227.251 30.1127C226.019 29.7314 224.963 29.2034 224.083 28.5288C223.218 27.8395 222.551 27.0402 222.081 26.131C221.627 25.207 221.399 24.1951 221.399 23.0952C221.399 21.9513 221.634 20.9027 222.103 19.9494C222.573 18.9962 223.247 18.1602 224.127 17.4416C225.007 16.723 226.07 16.173 227.317 15.7917C228.578 15.3958 230.001 15.1978 231.584 15.1978ZM270.742 15.1978V39H264.384V15.1978H270.742ZM278.397 15.1978V20.1034H256.839V15.1978H278.397ZM279.871 27.3409V26.8789C279.871 25.1337 280.12 23.5278 280.619 22.0613C281.117 20.58 281.843 19.2968 282.797 18.2116C283.75 17.1263 284.923 16.283 286.316 15.6817C287.71 15.0658 289.308 14.7578 291.112 14.7578C292.916 14.7578 294.522 15.0658 295.93 15.6817C297.338 16.283 298.518 17.1263 299.471 18.2116C300.439 19.2968 301.173 20.58 301.671 22.0613C302.17 23.5278 302.419 25.1337 302.419 26.8789V27.3409C302.419 29.0714 302.17 30.6773 301.671 32.1585C301.173 33.6251 300.439 34.9083 299.471 36.0082C298.518 37.0935 297.345 37.9367 295.952 38.538C294.558 39.1393 292.96 39.44 291.156 39.44C289.352 39.44 287.746 39.1393 286.338 38.538C284.945 37.9367 283.765 37.0935 282.797 36.0082C281.843 34.9083 281.117 33.6251 280.619 32.1585C280.12 30.6773 279.871 29.0714 279.871 27.3409ZM286.206 26.8789V27.3409C286.206 28.3381 286.294 29.2694 286.47 30.1347C286.646 30.9999 286.925 31.7625 287.306 32.4225C287.702 33.0678 288.216 33.5737 288.846 33.9404C289.477 34.307 290.247 34.4903 291.156 34.4903C292.036 34.4903 292.791 34.307 293.422 33.9404C294.052 33.5737 294.558 33.0678 294.94 32.4225C295.321 31.7625 295.6 30.9999 295.776 30.1347C295.966 29.2694 296.062 28.3381 296.062 27.3409V26.8789C296.062 25.911 295.966 25.0017 295.776 24.1511C295.6 23.2858 295.314 22.5232 294.918 21.8633C294.536 21.1887 294.03 20.6607 293.4 20.2794C292.769 19.8981 292.007 19.7074 291.112 19.7074C290.217 19.7074 289.455 19.8981 288.824 20.2794C288.208 20.6607 287.702 21.1887 287.306 21.8633C286.925 22.5232 286.646 23.2858 286.47 24.1511C286.294 25.0017 286.206 25.911 286.206 26.8789ZM326.375 15.1978V39H320.018V15.1978H326.375ZM323.384 25.383V30.3326C322.9 30.582 322.276 30.8166 321.514 31.0366C320.751 31.2566 319.945 31.4326 319.094 31.5646C318.258 31.6819 317.481 31.7405 316.762 31.7405C314.474 31.7405 312.509 31.4252 310.867 30.7946C309.239 30.164 307.985 29.1741 307.105 27.8248C306.225 26.4756 305.785 24.7451 305.785 22.6332V15.1758H312.12V22.6332C312.12 23.7038 312.282 24.5471 312.604 25.163C312.927 25.7643 313.426 26.1896 314.1 26.4389C314.79 26.6736 315.677 26.7909 316.762 26.7909C317.525 26.7909 318.265 26.7323 318.984 26.6149C319.703 26.4976 320.421 26.3363 321.14 26.131C321.858 25.9256 322.606 25.6763 323.384 25.383ZM338.013 15.1978V39H331.677V15.1978H338.013ZM353.477 15.1978L343.226 30.0907H336.891L336.121 24.2391H340.322L345.448 15.1978H353.477ZM345.734 39L339.882 28.9468L345.404 25.889L354.225 39H345.734ZM369.448 33.6324V23.0292C369.448 22.2666 369.324 21.614 369.074 21.0713C368.825 20.514 368.436 20.0814 367.908 19.7734C367.395 19.4655 366.728 19.3115 365.906 19.3115C365.203 19.3115 364.594 19.4361 364.081 19.6854C363.567 19.9201 363.171 20.2647 362.893 20.7194C362.614 21.1593 362.475 21.68 362.475 22.2813H356.139C356.139 21.2693 356.374 20.3087 356.843 19.3995C357.312 18.4902 357.994 17.6909 358.889 17.0016C359.784 16.2977 360.847 15.7477 362.079 15.3518C363.325 14.9558 364.719 14.7578 366.258 14.7578C368.106 14.7578 369.749 15.0658 371.186 15.6817C372.623 16.2977 373.753 17.2216 374.574 18.4535C375.41 19.6854 375.828 21.2253 375.828 23.0732V33.2584C375.828 34.5637 375.908 35.6343 376.07 36.4702C376.231 37.2915 376.466 38.0101 376.774 38.626V39H370.372C370.064 38.3547 369.829 37.5481 369.668 36.5802C369.522 35.5976 369.448 34.615 369.448 33.6324ZM370.284 24.5031L370.328 28.0888H366.786C365.95 28.0888 365.225 28.1841 364.609 28.3748C363.993 28.5654 363.487 28.8368 363.091 29.1887C362.695 29.526 362.401 29.922 362.211 30.3766C362.035 30.8313 361.947 31.3299 361.947 31.8725C361.947 32.4152 362.071 32.9065 362.321 33.3464C362.57 33.7717 362.929 34.109 363.399 34.3583C363.868 34.593 364.418 34.7103 365.049 34.7103C366.002 34.7103 366.83 34.5197 367.534 34.1384C368.238 33.7571 368.781 33.2878 369.162 32.7305C369.558 32.1732 369.763 31.6452 369.778 31.1466L371.45 33.8304C371.215 34.4317 370.893 35.055 370.482 35.7002C370.086 36.3455 369.58 36.9542 368.964 37.5261C368.348 38.0834 367.608 38.5454 366.742 38.912C365.877 39.264 364.851 39.44 363.663 39.44C362.152 39.44 360.781 39.1393 359.549 38.538C358.332 37.9221 357.364 37.0788 356.645 36.0082C355.941 34.923 355.589 33.6911 355.589 32.3125C355.589 31.0659 355.824 29.9587 356.293 28.9907C356.762 28.0228 357.452 27.2089 358.361 26.5489C359.285 25.8743 360.436 25.3684 361.815 25.031C363.193 24.6791 364.792 24.5031 366.61 24.5031H370.284Z" fill="white"/>
<path d="M26.3079 0C16.3667 0 8.30786 7.43892 8.30786 16.6154C8.30786 19.5667 9.16646 22.3269 10.6281 24.7278C10.8708 25.1266 11.1253 25.5192 11.4016 25.8972L26.3079 49.8462L41.2141 25.8972C41.4436 25.5835 41.6416 25.2512 41.8464 24.9231L41.9881 24.7278C43.4484 22.3269 44.3079 19.5667 44.3079 16.6154C44.3079 7.43892 36.2484 0 26.3079 0ZM26.3079 8.30769C31.2781 8.30769 35.3079 12.0273 35.3079 16.6154C35.3079 21.2033 31.2781 24.9231 26.3079 24.9231C21.3374 24.9231 17.3079 21.2033 17.3079 16.6154C17.3079 12.0273 21.3374 8.30769 26.3079 8.30769Z" fill="#FC6555"/>
<path d="M26.3077 6.57693C20.2539 6.57693 15.3462 11.4846 15.3462 17.5385C15.3462 23.5914 20.2539 28.5 26.3077 28.5C32.3607 28.5 37.2693 23.5914 37.2693 17.5385C37.2693 11.4846 32.3607 6.57693 26.3077 6.57693ZM26.3077 10.9616C29.9404 10.9616 32.8847 13.906 32.8847 17.5385C32.8847 21.1709 29.9404 24.1154 26.3077 24.1154C22.6751 24.1154 19.7308 21.1709 19.7308 17.5385C19.7308 13.906 22.6751 10.9616 26.3077 10.9616Z" fill="#FFD8D3"/>
</svg>
